<?xml version="1.0" standalone="no"?>
<!DOCTYPE svg PUBLIC "-//W3C//DTD SVG 20010904//EN"
 "http://www.w3.org/TR/2001/REC-SVG-20010904/DTD/svg10.dtd">
<svg version="1.0" xmlns="http://www.w3.org/2000/svg"
 width="512.000000pt" height="512.000000pt" viewBox="0 0 512.000000 512.000000"
 preserveAspectRatio="xMidYMid meet">
<metadata>
Created by potrace 1.14, written by Peter Selinger 2001-2017
</metadata>
<g transform="translate(0.000000,512.000000) scale(0.100000,-0.100000)"
fill="#000000" stroke="none">
<path d="M2325 4990 c-379 -43 -714 -155 -1025 -342 -912 -548 -1363 -1634
-1109 -2667 239 -972 1026 -1685 2029 -1838 160 -24 520 -24 680 0 1090 166
1911 987 2077 2077 13 84 18 176 18 340 0 250 -14 366 -66 579 -239 968 -1028
1686 -2019 1836 -124 19 -470 28 -585 15z m-1 -1164 l1 -174 -155 -4 c-168 -4
-201 -12 -234 -63 -28 -42 -35 -153 -36 -512 l0 -343 665 0 665 0 0 343 c-1
359 -8 470 -36 512 -33 51 -66 60 -232 62 l-153 3 -1 175 0 175 653 2 654 3
-2 -179 -2 -178 -145 1 c-161 2 -218 -8 -257 -46 -54 -51 -54 -43 -54 -1023 0
-885 0 -906 20 -944 38 -76 53 -81 254 -84 l178 -3 0 -182 0 -182 -646 0 -646
0 0 183 0 182 153 0 c181 0 202 7 235 78 21 45 22 63 25 400 l4 352 -667 0
-667 0 4 -352 c4 -490 -2 -478 261 -478 l153 0 0 -182 -1 -183 -646 0 -646 0
0 182 0 182 178 3 c201 3 216 8 254 84 20 38 20 59 20 944 0 980 0 972 -54
1023 -39 38 -96 48 -257 46 l-145 -1 -2 178 -2 179 654 -3 653 -2 2 -174z"/>
</g>
</svg>
