<?xml version="1.0" standalone="no"?>
<!DOCTYPE svg PUBLIC "-//W3C//DTD SVG 20010904//EN"
 "http://www.w3.org/TR/2001/REC-SVG-20010904/DTD/svg10.dtd">
<svg version="1.0" xmlns="http://www.w3.org/2000/svg"
 width="260.000000pt" height="260.000000pt" viewBox="0 0 260.000000 260.000000"
 preserveAspectRatio="xMidYMid meet">
<metadata>
Created by potrace 1.11, written by Peter Selinger 2001-2013
</metadata>
<g transform="translate(0.000000,260.000000) scale(0.100000,-0.100000)"
fill="#000000" stroke="none">
<path d="M1125 2499 c-103 -19 -192 -43 -265 -71 -112 -44 -156 -69 -314 -178
-51 -35 -199 -197 -249 -272 -55 -84 -134 -239 -142 -279 -3 -12 -9 -36 -15
-54 -6 -18 -13 -42 -15 -54 -3 -11 -7 -31 -10 -43 -21 -93 -28 -323 -13 -418
28 -180 92 -345 192 -495 132 -197 354 -375 571 -456 68 -25 138 -45 190 -55
11 -2 42 -8 69 -13 64 -12 327 -7 386 7 25 6 56 13 70 15 14 3 61 17 105 32
71 24 103 38 155 66 8 4 33 18 55 30 137 73 309 235 403 378 34 52 62 100 62
108 0 7 5 13 10 13 6 0 10 6 10 13 0 7 8 31 19 53 18 38 50 124 56 154 2 8 4
17 5 20 1 3 2 8 1 12 0 4 3 18 9 32 17 45 25 141 24 286 -1 123 -5 162 -28
255 -15 61 -35 126 -43 145 -8 19 -21 49 -28 65 -8 17 -16 37 -20 45 -3 8 -11
24 -18 35 -7 11 -25 43 -41 70 -16 28 -32 52 -35 55 -3 3 -19 23 -35 45 -44
60 -177 188 -248 238 -142 100 -325 180 -467 203 -18 3 -43 8 -55 11 -39 9
-301 11 -351 2z"/>
</g>
</svg>
